<svg xmlns="http://www.w3.org/2000/svg" width="350" height="341" viewBox="0 0 92.604 90.223"><g fill="#e0091d"><path d="M13.04 52.706c.904 0 1.637-.733 1.637-1.636a33.711 33.711 0 0112.655-26.402 1.527 1.527 0 00.218-2.29 1.636 1.636 0 00-2.291-.219 37.093 37.093 0 00-13.855 28.91c0 .905.732 1.637 1.636 1.637zM58.728 82.718c-8.84 2.29-18.375 2.29-27.215 0-1.088-.279-2.257.193-2.61 1.052l-.014.039c-.283.868.315 1.764 1.38 2.072a59.732 59.732 0 0014.782 1.855c5.122.004 10.21-.66 15.058-1.964 1.017-.414 1.416-1.402.89-2.204-.428-.655-1.358-1.003-2.271-.85zM62.636 23.454l.021.015a33.929 33.929 0 0114.292 27.6 1.637 1.637 0 003.273 0 37.31 37.31 0 00-15.71-30.328 1.745 1.745 0 00-2.291.437 1.636 1.636 0 00.415 2.276z"/><g transform="translate(-11.066 30.393) scale(.24112)"><ellipse ry="25.28" rx="22.721" cy="129.812" cx="103.095"/><path d="M78.508 204.499c3.746 5.47-.106 22.867 7.038 26.688 9.491 5.078 28.558 4.976 36.375-.034 8.543-5.477 3.772-21.214 7.353-26.634 7.799-11.802 9.964-50.595-5.261-51.413-8.305 13.155-35.367 12.06-42.063.036-15.603 1.2-11.524 39.552-3.442 51.357z"/></g><g transform="translate(51.168 30.393) scale(.24112)"><ellipse cx="103.095" cy="129.812" rx="22.721" ry="25.28"/><path d="M78.508 204.499c3.746 5.47-.106 22.867 7.038 26.688 9.491 5.078 28.558 4.976 36.375-.034 8.543-5.477 3.772-21.214 7.353-26.634 7.799-11.802 9.964-50.595-5.261-51.413-8.305 13.155-35.367 12.06-42.063.036-15.603 1.2-11.524 39.552-3.442 51.357z"/></g><g transform="translate(20.565 -23.018) scale(.24112)"><ellipse cx="103.095" cy="129.812" rx="22.721" ry="25.28"/><path d="M78.508 204.499c3.746 5.47-.106 22.867 7.038 26.688 9.491 5.078 28.558 4.976 36.375-.034 8.543-5.477 3.772-21.214 7.353-26.634 7.799-11.802 9.964-50.595-5.261-51.413-8.305 13.155-35.367 12.06-42.063.036-15.603 1.2-11.524 39.552-3.442 51.357z"/></g></g></svg>